<?xml version="1.0" encoding="UTF-8"?> <svg xmlns="http://www.w3.org/2000/svg" width="35" height="34" viewBox="0 0 35 34" fill="none"> <circle cx="17.379" cy="17.1695" r="16.6778" fill="#1398BE"></circle> <path d="M17.5216 24.5928C17.4737 24.5928 17.4258 24.5928 17.3776 24.5926C16.2437 24.5954 15.1961 24.5658 14.1772 24.5022C13.2431 24.4438 12.3904 24.1125 11.7112 23.5442C11.0559 22.9957 10.6084 22.2541 10.3811 21.3403C10.1833 20.5447 10.1729 19.7637 10.1628 19.0083C10.1555 18.4664 10.148 17.8241 10.1465 17.171C10.148 16.5152 10.1555 15.873 10.1628 15.331C10.1729 14.5757 10.1833 13.7947 10.3811 12.999C10.6084 12.0852 11.0559 11.3436 11.7112 10.7952C12.3904 10.2268 13.2431 9.89549 14.1773 9.83715C15.1962 9.77361 16.2441 9.74394 17.3804 9.74677C18.5146 9.74428 19.5619 9.77361 20.5808 9.83715C21.5149 9.89549 22.3676 10.2268 23.0468 10.7952C23.7022 11.3436 24.1496 12.0852 24.3769 12.999C24.5746 13.7946 24.5851 14.5757 24.5952 15.331C24.6025 15.873 24.6101 16.5152 24.6115 17.1683V17.171C24.6101 17.8241 24.6025 18.4664 24.5952 19.0083C24.5851 19.7636 24.5748 20.5446 24.3769 21.3403C24.1496 22.2541 23.7022 22.9957 23.0468 23.5442C22.3676 24.1125 21.5149 24.4438 20.5808 24.5022C19.6051 24.5631 18.6028 24.5928 17.5216 24.5928ZM17.3776 23.4327C18.4931 23.4354 19.5172 23.4065 20.5122 23.3445C21.2185 23.3004 21.8309 23.0651 22.3326 22.6453C22.7964 22.2571 23.1158 21.7216 23.2819 21.0535C23.4465 20.3912 23.456 19.6801 23.4652 18.9925C23.4723 18.4541 23.4798 17.8164 23.4814 17.1697C23.4798 16.5228 23.4723 15.8852 23.4652 15.3468C23.456 14.6592 23.4465 13.9481 23.2819 13.2857C23.1158 12.6177 22.7964 12.0821 22.3326 11.694C21.8309 11.2742 21.2185 11.0389 20.5122 10.9949C19.5172 10.9327 18.4931 10.904 17.3803 10.9065C16.265 10.9038 15.2408 10.9327 14.2458 10.9949C13.5395 11.0389 12.9271 11.2742 12.4254 11.694C11.9616 12.0821 11.6422 12.6177 11.4761 13.2857C11.3115 13.9481 11.302 14.6591 11.2928 15.3468C11.2857 15.8857 11.2782 16.5237 11.2766 17.171C11.2782 17.8155 11.2857 18.4537 11.2928 18.9925C11.302 19.6801 11.3115 20.3912 11.4761 21.0535C11.6422 21.7216 11.9616 22.2571 12.4254 22.6453C12.9271 23.065 13.5395 23.3003 14.2458 23.3444C15.2408 23.4065 16.2653 23.4355 17.3776 23.4327ZM17.3507 20.7942C15.4034 20.7942 13.8191 19.1683 13.8191 17.1697C13.8191 15.1711 15.4034 13.5451 17.3507 13.5451C19.2981 13.5451 20.8823 15.1711 20.8823 17.1697C20.8823 19.1683 19.2981 20.7942 17.3507 20.7942ZM17.3507 14.705C16.0265 14.705 14.9492 15.8107 14.9492 17.1697C14.9492 18.5287 16.0265 19.6344 17.3507 19.6344C18.6749 19.6344 19.7522 18.5287 19.7522 17.1697C19.7522 15.8107 18.6749 14.705 17.3507 14.705ZM21.2779 12.3852C20.8098 12.3852 20.4303 12.7746 20.4303 13.2551C20.4303 13.7356 20.8098 14.125 21.2779 14.125C21.746 14.125 22.1255 13.7356 22.1255 13.2551C22.1255 12.7746 21.746 12.3852 21.2779 12.3852Z" fill="white"></path> </svg> 