<?xml version="1.0" encoding="UTF-8"?> <svg xmlns="http://www.w3.org/2000/svg" width="35" height="34" viewBox="0 0 35 34" fill="none"> <circle cx="17.5523" cy="17.1695" r="16.6778" fill="#1398BE"></circle> <path d="M9.54267 16.5081L13.1779 18.3675C13.3185 18.4387 13.4845 18.4336 13.6189 18.3529L16.8546 16.4223L14.8961 18.2035C14.7963 18.2944 14.7394 18.4241 14.7394 18.5608V22.8993C14.7394 23.357 15.3086 23.5496 15.5755 23.186L17.1469 21.0418L21.033 23.3132C21.3055 23.474 21.6548 23.3125 21.718 22.9928L24.1417 10.5968C24.2142 10.2243 23.8531 9.92048 23.5173 10.0591L9.58107 15.6372C9.20696 15.7872 9.18281 16.3244 9.54267 16.5081ZM23.064 11.2643L20.9339 22.1581L17.2516 20.0057C17.0509 19.8881 16.7926 19.9402 16.6502 20.1335L15.6684 21.4728V18.775L20.9648 13.959C21.3842 13.5782 20.9023 12.9012 20.4235 13.1898L13.3686 17.3994L10.896 16.135L23.064 11.2643Z" fill="white"></path> </svg> 