<?xml version="1.0" encoding="UTF-8"?> <svg xmlns="http://www.w3.org/2000/svg" width="34" height="34" viewBox="0 0 34 34" fill="none"> <circle cx="16.9893" cy="17.1695" r="16.6778" fill="#1398BE"></circle> <path d="M19.2158 16.5036L16.0201 14.709C15.8364 14.6059 15.6192 14.6097 15.4391 14.7192C15.2589 14.8289 15.1514 15.0225 15.1514 15.2375V18.7958C15.1514 19.0097 15.2582 19.2031 15.4372 19.3128C15.5307 19.3701 15.6343 19.3989 15.7381 19.3989C15.8333 19.3989 15.9286 19.3748 16.0164 19.3263L19.2121 17.5627C19.4018 17.4579 19.5202 17.2555 19.5211 17.0343C19.5219 16.8131 19.4049 16.6098 19.2158 16.5036ZM15.999 18.3482V15.6888L18.3874 17.03L15.999 18.3482Z" fill="white"></path> <path d="M24.1154 14.2012L24.1147 14.1944C24.1025 14.0749 23.9805 13.0121 23.4771 12.4715C22.8951 11.8356 22.2354 11.7584 21.9181 11.7213C21.8919 11.7183 21.8678 11.7154 21.8463 11.7125L21.821 11.7098C19.9087 11.5671 17.0207 11.5476 16.9918 11.5475L16.9893 11.5474L16.9868 11.5475C16.9578 11.5476 14.0699 11.5671 12.1404 11.7098L12.1149 11.7125C12.0943 11.7153 12.0717 11.7179 12.0471 11.7209C11.7335 11.758 11.0808 11.8354 10.4972 12.4942C10.0177 13.0291 9.87911 14.0692 9.86488 14.186L9.86322 14.2012C9.85892 14.2509 9.75684 15.4347 9.75684 16.623V17.7339C9.75684 18.9222 9.85892 20.1059 9.86322 20.1558L9.86399 20.1633C9.87624 20.2808 9.99808 21.3242 10.4992 21.865C11.0464 22.4796 11.7382 22.5609 12.1103 22.6046C12.1692 22.6115 12.2198 22.6174 12.2544 22.6237L12.2878 22.6284C13.3919 22.7362 16.8538 22.7894 17.0006 22.7915L17.005 22.7916L17.0094 22.7915C17.0383 22.7914 19.9262 22.7719 21.8384 22.6292L21.8637 22.6265C21.8879 22.6232 21.915 22.6203 21.9448 22.6171C22.2567 22.5831 22.9058 22.5126 23.4814 21.8627C23.9609 21.3277 24.0996 20.2876 24.1137 20.1708L24.1154 20.1557C24.1197 20.1058 24.2219 18.9222 24.2219 17.7339V16.623C24.2218 15.4347 24.1197 14.2511 24.1154 14.2012ZM23.3741 17.7339C23.3741 18.8338 23.2805 19.9665 23.2717 20.0705C23.2357 20.3569 23.0895 21.015 22.8558 21.2756C22.4956 21.6823 22.1256 21.7227 21.8554 21.752C21.8228 21.7555 21.7925 21.7589 21.7652 21.7624C19.9156 21.8997 17.1366 21.9208 17.0086 21.9215C16.865 21.9194 13.4538 21.8658 12.3834 21.7638C12.3285 21.7546 12.2693 21.7476 12.2068 21.7403C11.89 21.7031 11.4562 21.6521 11.1227 21.2756L11.1149 21.267C10.8854 21.0216 10.7433 20.4062 10.7072 20.0739C10.7005 19.9953 10.6045 18.8492 10.6045 17.7339V16.623C10.6045 15.5244 10.6979 14.3929 10.7069 14.2867C10.7498 13.9493 10.8988 13.3311 11.1227 13.0813C11.494 12.6622 11.8854 12.6158 12.1443 12.5851C12.1691 12.5821 12.1921 12.5794 12.2134 12.5766C14.09 12.4386 16.8889 12.4181 16.9893 12.4173C17.0897 12.418 19.8876 12.4386 21.7475 12.5766C21.7704 12.5795 21.7953 12.5825 21.8221 12.5856C22.0884 12.6168 22.4909 12.6639 22.8603 13.0683L22.8637 13.072C23.0932 13.3174 23.2353 13.9435 23.2713 14.2825C23.2777 14.3567 23.3741 15.5053 23.3741 16.623V17.7339Z" fill="white"></path> </svg> 