<?xml version="1.0" encoding="UTF-8"?> <svg xmlns="http://www.w3.org/2000/svg" width="34" height="34" viewBox="0 0 34 34" fill="none"> <circle cx="16.7345" cy="17.1695" r="16.6778" fill="#1398BE"></circle> <path d="M25.1329 21.4734C24.6834 20.9205 24.1756 20.4269 23.6844 19.9495C23.5118 19.7817 23.3333 19.6082 23.1614 19.4359C23.1613 19.4359 23.1613 19.4358 23.1612 19.4358C22.93 19.2043 22.8168 19.04 22.8049 18.9186C22.7933 18.7993 22.8727 18.6223 23.0554 18.3607C23.3286 17.9672 23.6198 17.573 23.9016 17.1918C24.152 16.853 24.4108 16.5026 24.659 16.1502L24.7147 16.0711C25.1988 15.3834 25.6993 14.6723 25.9676 13.8058C26.0442 13.5573 26.1237 13.1896 25.9318 12.8669C25.7399 12.544 25.384 12.4484 25.1332 12.4045C25.0107 12.383 24.8945 12.3812 24.7863 12.3812L21.6461 12.3783C21.1031 12.3691 20.7265 12.6332 20.5212 13.1635C20.357 13.5871 20.163 14.078 19.9382 14.5437C19.5082 15.4427 18.9617 16.4781 18.1697 17.3408L18.1345 17.3793C18.0806 17.4383 17.9925 17.5349 17.9472 17.5571C17.8614 17.5017 17.7624 17.1852 17.7669 17.0194C17.7671 17.0153 17.7671 17.0113 17.7671 17.0072L17.7643 13.2832C17.7643 13.2643 17.763 13.2454 17.7606 13.2266C17.6901 12.6953 17.5528 12.1627 16.7335 11.9968C16.7072 11.9914 16.6805 11.9888 16.6538 11.9888H13.3872C12.7727 11.9888 12.4476 12.2776 12.187 12.5908C12.1116 12.6821 11.9112 12.9245 12.0133 13.2208C12.1166 13.5207 12.4245 13.5805 12.5255 13.6001C12.8815 13.6695 13.0656 13.876 13.1226 14.2707C13.2352 15.0377 13.249 15.8583 13.1661 16.8517C13.1429 17.1184 13.0999 17.3211 13.0305 17.4897C13.0113 17.5364 12.9944 17.5653 12.9826 17.5824C12.9638 17.5746 12.9346 17.5597 12.894 17.5312C12.6439 17.3555 12.4554 17.0824 12.2731 16.8184C11.5449 15.7633 10.9324 14.5979 10.4003 13.2552C10.1812 12.705 9.76928 12.3976 9.24121 12.3897C8.23511 12.3725 7.30461 12.3729 6.39747 12.391C5.96961 12.3986 5.66957 12.5369 5.50555 12.8019C5.34133 13.0675 5.34734 13.4061 5.52347 13.8085C6.78255 16.6819 7.92579 18.7723 9.23023 20.5863C10.1487 21.8634 11.0733 22.75 12.1399 23.3763C13.2605 24.0343 14.5244 24.3567 15.9906 24.3567C16.1573 24.3567 16.3269 24.3525 16.4988 24.3441C17.4034 24.3018 17.7715 23.9325 17.8116 23.0283C17.8341 22.5504 17.886 22.1633 18.0658 21.8269C18.116 21.7328 18.1728 21.6697 18.2175 21.6581C18.2651 21.6459 18.3494 21.6758 18.4431 21.7383C18.6145 21.8525 18.7621 22.0075 18.8835 22.1435C19.0065 22.2817 19.1308 22.4245 19.2511 22.5625C19.5071 22.8565 19.7719 23.1605 20.0492 23.4505C20.6765 24.1067 21.3997 24.4077 22.1995 24.3447L25.0734 24.346C25.0735 24.346 25.0735 24.346 25.0735 24.346C25.0827 24.346 25.0918 24.3458 25.1009 24.3451C25.4324 24.3225 25.719 24.1341 25.8873 23.8283C26.0899 23.4599 26.0869 22.9934 25.8789 22.5798C25.6619 22.1498 25.3804 21.7797 25.1329 21.4734ZM25.1704 23.4128C25.1308 23.4849 25.0819 23.498 25.0567 23.5012L22.1835 23.4998C22.1834 23.4998 22.1833 23.4998 22.1832 23.4998C22.1718 23.4998 22.1605 23.5002 22.1492 23.5012C21.5832 23.5496 21.1021 23.3454 20.6368 22.8587C20.3729 22.5827 20.1146 22.2863 19.8649 21.9996C19.7432 21.8598 19.6174 21.7153 19.491 21.5733C19.3343 21.3976 19.1405 21.1957 18.8915 21.0297C18.5188 20.7814 18.2098 20.7889 18.0164 20.8389C17.825 20.8884 17.5529 21.0297 17.344 21.4209C17.0734 21.927 17.0137 22.4731 16.9894 22.9889C16.9754 23.3044 16.9234 23.3877 16.9017 23.4089C16.8732 23.4366 16.7781 23.4854 16.4609 23.5003C14.9362 23.5738 13.6567 23.2936 12.5487 22.643C11.5848 22.077 10.7408 21.264 9.89266 20.0847C8.62434 18.321 7.50838 16.2785 6.27437 13.4622C6.22965 13.3602 6.21585 13.2965 6.21185 13.2624C6.24333 13.2518 6.30484 13.2379 6.41269 13.2358C7.31062 13.218 8.2314 13.2175 9.22841 13.2345C9.36491 13.2366 9.52034 13.2787 9.63803 13.5742C10.1939 14.9771 10.8361 16.1981 11.6013 17.3069C11.8045 17.6012 12.0574 17.9675 12.4291 18.2285C12.7695 18.4678 13.0458 18.4563 13.2177 18.4046C13.3896 18.3529 13.6282 18.2092 13.7889 17.8186C13.8926 17.5669 13.9553 17.2835 13.9863 16.9253C14.075 15.8627 14.0592 14.9793 13.9369 14.146C13.8506 13.5489 13.5503 13.1177 13.0771 12.8974C13.1611 12.8525 13.2558 12.8338 13.3873 12.8338H16.6112C16.7926 12.8755 16.8285 12.9246 16.8408 12.9414C16.893 13.0126 16.9229 13.1813 16.9411 13.313L16.9439 17.0027C16.9366 17.3564 17.1041 18.1409 17.6744 18.356C17.6791 18.3577 17.6838 18.3594 17.6885 18.361C18.2077 18.5351 18.5511 18.159 18.7355 17.9569L18.7683 17.921C19.6359 16.9759 20.2201 15.8717 20.6766 14.9175C20.9145 14.4248 21.1159 13.9152 21.2863 13.4758C21.3715 13.2555 21.4491 13.2192 21.6342 13.2232C21.6367 13.2233 21.6392 13.2233 21.6418 13.2233L24.7861 13.2262C24.8592 13.2262 24.9355 13.227 24.9948 13.2374C25.1446 13.2636 25.2063 13.2955 25.2266 13.3087C25.2287 13.3332 25.2282 13.4036 25.183 13.5506C24.9549 14.2875 24.5141 14.9135 24.0475 15.5764L23.9918 15.6556C23.7493 15.9999 23.4933 16.3463 23.2458 16.6814C22.9604 17.0675 22.6655 17.4667 22.3858 17.8695C21.7879 18.7257 21.8405 19.2938 22.5866 20.0408C22.763 20.2174 22.9437 20.3932 23.1185 20.5631C23.6142 21.0449 24.0824 21.5 24.5003 22.0139C24.719 22.2846 24.967 22.6096 25.1477 22.9678C25.242 23.1554 25.2189 23.3248 25.1704 23.4128Z" fill="white"></path> <path d="M8.38778 14.5969C8.32732 14.4741 8.26738 14.351 8.20801 14.2277C8.10728 14.0185 7.8606 13.9326 7.65666 14.036C7.45284 14.1393 7.36922 14.3927 7.46992 14.6019C7.53041 14.7275 7.59148 14.853 7.65303 14.978C7.72547 15.1251 7.8704 15.21 8.0207 15.21C8.0831 15.21 8.14651 15.1954 8.20604 15.1645C8.409 15.0592 8.49033 14.8051 8.38778 14.5969Z" fill="white"></path> <path d="M10.9714 18.9783C10.2964 18.0397 9.66497 17.0202 9.041 15.8617C8.93102 15.6575 8.68054 15.5835 8.48161 15.6963C8.28267 15.8092 8.21051 16.0663 8.32049 16.2705C8.96206 17.4616 9.61254 18.5115 10.3091 19.4801C10.3898 19.5923 10.5144 19.6517 10.6406 19.6517C10.7255 19.6517 10.8112 19.6248 10.8847 19.5691C11.0676 19.4305 11.1064 19.1661 10.9714 18.9783Z" fill="white"></path> </svg> 